<?xml version="1.0" standalone="no"?>
<!DOCTYPE svg PUBLIC "-//W3C//DTD SVG 20010904//EN"
 "http://www.w3.org/TR/2001/REC-SVG-20010904/DTD/svg10.dtd">
<svg version="1.0" xmlns="http://www.w3.org/2000/svg"
 width="300.000000pt" height="300.000000pt" viewBox="0 0 300.000000 300.000000"
 preserveAspectRatio="xMidYMid meet">
<metadata>
Created by potrace 1.11, written by Peter Selinger 2001-2013
</metadata>
<g transform="translate(0.000000,300.000000) scale(0.100000,-0.100000)"
fill="#000000" stroke="none">
<path d="M1307 2473 c-3 -5 -8 -37 -12 -73 -4 -36 -9 -74 -11 -85 -3 -11 -5
-50 -6 -87 -1 -76 -2 -77 -88 -93 -198 -36 -370 -145 -434 -276 -35 -73 -38
-88 -42 -204 -3 -120 10 -166 92 -328 179 -352 405 -595 581 -623 21 -4 45 -8
53 -9 8 -2 18 -4 21 -4 4 -1 7 -34 8 -74 l1 -72 -45 -23 c-41 -20 -48 -21 -73
-9 -78 40 -174 5 -211 -76 -22 -48 -34 -134 -20 -143 5 -3 7 -9 4 -14 -2 -4 6
-24 20 -44 23 -34 24 -38 10 -74 -17 -43 -26 -113 -18 -142 5 -17 14 -20 64
-20 33 0 59 3 60 8 0 4 2 25 5 46 7 67 26 70 22 4 l-4 -58 342 0 c371 0 352
-3 349 58 -3 46 11 40 21 -10 l9 -43 71 -3 71 -3 -4 38 c-5 50 -21 100 -44
141 -19 33 -19 33 5 80 65 129 -18 302 -145 304 -67 1 -88 -2 -104 -18 -17
-18 -32 -16 -110 13 -27 10 -51 18 -52 18 -4 1 -14 64 -18 121 l-5 62 52 37
c28 21 58 43 65 49 35 29 138 135 162 166 14 19 28 37 31 40 11 10 78 117 114
182 38 68 92 212 101 271 3 18 8 45 11 60 7 35 7 144 0 177 -3 14 -9 39 -12
55 -9 42 -65 155 -77 155 -6 0 -8 3 -4 6 3 3 -18 27 -48 53 -84 74 -184 117
-340 146 -16 3 -84 8 -150 11 -66 3 -125 7 -131 9 -6 2 -25 47 -43 100 -34
102 -76 205 -85 205 -3 0 -7 -3 -9 -7z"/>
</g>
</svg>
